<?xml version="1.0" encoding="utf-8"?>
<!-- Generator: Adobe Illustrator 21.0.0, SVG Export Plug-In . SVG Version: 6.00 Build 0)  -->
<svg version="1.1" id="Layer_1" xmlns="http://www.w3.org/2000/svg"  x="0px" y="0px"
	 viewBox="0 0 140 140" style="enable-background:new 0 0 140 140;" xml:space="preserve">
<style type="text/css">
	.st0{fill:none;stroke:#C4C0D7;stroke-width:3;stroke-miterlimit:10;}
	.st1{fill:none;stroke:#57C1B3;stroke-width:3;stroke-miterlimit:10;}
</style>
<g id="Layer_1_1_">
</g>
<g>
	<g>
		<line class="st0" x1="77.9" y1="57.2" x2="77.9" y2="52.6"/>
		<path class="st0" d="M64.2,57.1"/>
		<line class="st0" x1="64.2" y1="52.6" x2="64.2" y2="57.1"/>
	</g>
	<g>
		<g>
			<g>
				<polyline class="st0" points="107.4,94.9 114.2,101.7 100.9,114.9 				"/>
				<path class="st0" d="M104.5,129.9l21.3-21.2c4.8-5.4,4.8-13.5,0.1-18.9l-6.7-6.7"/>
			</g>
		</g>
		<g>
			<g>
				<path class="st0" d="M35.4,129.7l-21-21c-4.8-5.4-4.8-13.5-0.1-18.9l6.7-6.7"/>
				<polyline class="st0" points="32.8,94.9 26.1,101.7 39.3,114.9 				"/>
			</g>
		</g>
		<line class="st0" x1="44.4" y1="132.2" x2="95.9" y2="132.2"/>
		<line class="st0" x1="95.9" y1="138.3" x2="44.4" y2="138.3"/>
		<g>
			<g>
				<g>
					<path class="st1" d="M76.6,84.4L76.6,84.4c-1-1.4-2.9-3-6-3c-4.5,0-7.8,3.4-7.8,8.1c0,4.7,3.3,8.1,7.8,8.1c3.1,0,5-1.6,6-3l0,0
						"/>
					<line class="st1" x1="60.4" y1="105.6" x2="79.9" y2="105.6"/>
				</g>
			</g>
		</g>
		<g>
			<g>
				<g>
					<g>
						<path class="st0" d="M54.3,29.8c-2.9,0-5.3,2.4-5.3,5.3c0,2.9,2.4,5.3,5.3,5.3"/>
						<path class="st0" d="M87.9,40.5c3,0,5.3-2.4,5.3-5.3c0-2.9-2.4-5.3-5.3-5.3"/>
						<path class="st0" d="M87.8,26.9V36c0,9.3-7.5,18.5-16.9,18.5c-9.3,0-16.9-9.2-16.9-18.5V20.1"/>
					</g>
				</g>
			</g>
			<path class="st0" d="M80.5,8c0,0-0.1,0-0.1,0L69.4,8V2.3h-11c-5.1,0-9.3,4.2-9.3,9.3c0,1,0.2,2,0.5,2.9h-1.6
				c-1.3,0-2.2,1.1-1.9,2.4l3,16.6c0,0,0.1,0,0.1,0c0.7-2.1,2.6-3.6,4.9-3.6v-9.7c0,0,2.7,0.8,4.9,0.8c0,0,22.4,0,22.5,0
				c3.5,0.1,6.3,2.9,6.3,6.5v2.4c0,0,0,0,0,0c2.2,0,4.2,1.4,5,3.4l0,0c0.9-2.1,1.4-4.2,1.4-6.7v-4.7C94.2,14.2,88.1,8,80.5,8z"/>
		</g>
	</g>
	<line class="st0" x1="95.9" y1="83.4" x2="95.9" y2="77.4"/>
	<line class="st0" x1="44.4" y1="84.2" x2="44.4" y2="77.4"/>
	<path class="st0" d="M77.9,57.2v2.9c0,3-2.4,5.4-5.4,5.4h-2.9c-3,0-5.4-2.4-5.4-5.4v-2.9H52.6c-4.4,0-10.6,2.6-13.7,5.7L19.9,81.9
		l13,13l11.6-11.5v54.9h25.7h25.7V83.4l11.6,11.5l13-13l-19.1-19.1c-3.1-3.1-9.3-5.7-13.7-5.7H77.9z"/>
	<path class="st0" d="M95.9,113.4v24.9c5,0,8.7-3.5,8.7-8.9v-7.1C104.6,116.9,100.8,113.4,95.9,113.4z"/>
	<path class="st0" d="M44.4,113.4v24.9c-5,0-8.7-3.5-8.7-8.9v-7.1C35.7,116.9,39.5,113.4,44.4,113.4z"/>
	<line class="st0" x1="116.2" y1="77.7" x2="103.2" y2="90.6"/>
	<line class="st0" x1="24.1" y1="77.7" x2="37" y2="90.6"/>
</g>
</svg>
